<?xml version="1.0" encoding="UTF-8" standalone="no"?>
<!-- Created with Inkscape (http://www.inkscape.org/) -->

<svg
   width="666.52661"
   height="115.96815"
   viewBox="0 0 176.35183 30.683241"
   version="1.1"
   id="svg1"
   inkscape:version="1.4.3 (0d15f75042, 2025-12-25)"
   sodipodi:docname="big_a.svg"
   xmlns:inkscape="http://www.inkscape.org/namespaces/inkscape"
   xmlns:sodipodi="http://sodipodi.sourceforge.net/DTD/sodipodi-0.dtd"
   xmlns="http://www.w3.org/2000/svg"
   xmlns:svg="http://www.w3.org/2000/svg">
  <sodipodi:namedview
     id="namedview1"
     pagecolor="#ffffff"
     bordercolor="#000000"
     borderopacity="0.25"
     inkscape:showpageshadow="2"
     inkscape:pageopacity="0.0"
     inkscape:pagecheckerboard="0"
     inkscape:deskcolor="#d1d1d1"
     inkscape:document-units="mm"
     inkscape:zoom="0.45254834"
     inkscape:cx="279.52815"
     inkscape:cy="-44.194174"
     inkscape:window-width="1219"
     inkscape:window-height="1026"
     inkscape:window-x="0"
     inkscape:window-y="0"
     inkscape:window-maximized="1"
     inkscape:current-layer="layer1" />
  <defs
     id="defs1" />
  <g
     inkscape:label="Layer 1"
     inkscape:groupmode="layer"
     id="layer1"
     transform="translate(-345.61674,-291.38028)">
    <path
       id="path6-5"
       style="fill:#000000;fill-opacity:1;fill-rule:nonzero;stroke-width:0.100275"
       d="m 470.98387,300.48564 c -5.00637,0.0263 -10.56468,4.24974 -10.37024,10.95446 0.15688,5.40977 4.74436,10.01026 9.7664,10.28258 4.3823,0.23765 7.39061,-0.0292 7.39061,-0.0292 l 0.01,-4.89781 c 0,0 -4.32446,0.0641 -6.82576,0.0681 -0.78242,-0.17676 -2.69452,-0.13744 -4.27525,-2.51001 l 15.15025,0.003 c 1.18504,-9.03951 -4.43271,-13.90428 -10.84581,-13.87063 z m 0.19898,5.04802 c 5.22417,0.0821 5.7286,4.95755 5.7286,4.95755 l -11.23687,0.055 c 0,0 0.68527,-5.08839 5.50827,-5.01258 z"
       sodipodi:nodetypes="ssscccccsccsc"
       inkscape:label="second e" />
    <rect
       style="fill:#000000;fill-opacity:1;fill-rule:nonzero;stroke-width:0.141393"
       id="rect3-5"
       width="5.4393973"
       height="16.782095"
       x="399.16266"
       y="305.27942"
       inkscape:label="small t bottom part" />
    <path
       style="fill:#000000;fill-opacity:1;stroke-width:0.100275"
       d="m 345.61674,321.8876 15.36409,-30.28084 15.08838,30.17675 -6.05488,0.0977 -9.17999,-18.067 -9.17998,18.067 z"
       id="path1"
       sodipodi:nodetypes="ccccccc"
       inkscape:label="small A" />
    <path
       style="fill:#008bc2;fill-opacity:1;fill-rule:nonzero;stroke-width:0.100275"
       d="m 364.01226,291.38428 2.07743,-0.004 c 0,0 10.03276,20.35973 11.26537,22.62271 1.56255,2.86875 4.97545,5.95392 8.92449,5.96734 4.36392,0.0149 5.54426,-3.36603 5.60357,-5.10322 0.0661,-1.93781 -0.5744,-3.62037 -3.70166,-5.05433 -1.29618,-0.59434 -1.88894,-1.7565 -1.82233,-3.24311 0.0609,-1.35966 1.38399,-3.13253 3.47769,-3.12042 4.14332,0.0239 23.25548,0.0859 23.25548,0.0859 l 0.006,1.72734 c 0,0 -19.78613,0.0373 -23.59353,0.007 -0.54038,-0.004 -1.35772,0.55158 -1.36883,1.41284 -0.0138,1.06523 0.63148,1.47468 1.67059,1.94889 1.8432,0.84115 3.91497,2.77632 3.92068,6.05119 0.007,4.13371 -3.26755,7.01057 -7.38148,7.07179 -3.82188,0.0568 -7.15979,-2.2471 -8.7239,-4.13664 -1.30562,-1.57654 -1.71073,-2.5462 -3.61046,-6.08442 -1.90385,-3.54591 -9.99918,-20.14924 -9.99918,-20.14924 z"
       id="path2"
       sodipodi:nodetypes="ccssssssccssssssscc"
       inkscape:label="small wave bottom part" />
    <path
       style="fill:#00a5c2;fill-opacity:1;fill-rule:nonzero;stroke-width:0.100275"
       d="m 368.18321,291.41537 2.0544,-0.004 c 0,0 7.68976,15.45175 10.52432,21.26498 1.12522,2.30765 3.32941,3.25834 5.14316,3.65246 2.51902,0.54736 3.45324,-2.21503 0.86386,-3.19183 -1.49498,-0.56397 -4.00117,-2.33151 -4.02514,-6.24501 -0.0221,-3.59947 2.55646,-6.89875 7.13994,-6.89404 8.17895,0.008 14.97626,0.0349 23.14563,0.004 l 0.0195,1.61638 c 0,0 -21.23011,0.0788 -23.19793,0.12089 -2.3115,0.0493 -5.35821,1.40242 -5.27394,5.13727 0.0781,3.46227 2.5879,4.47079 2.9086,4.60287 1.6499,0.67953 2.91507,1.98006 2.5856,3.83435 -0.40133,2.25875 -2.47526,2.92057 -3.82289,2.83995 -2.75765,-0.16497 -5.88256,-2.17505 -7.07621,-4.55175 -6.1216,-12.18887 -10.98826,-22.18781 -10.98826,-22.18781 z"
       id="path3"
       sodipodi:nodetypes="ccsssssccsssssscc"
       inkscape:label="small wave top part" />
    <rect
       style="fill:#000000;fill-opacity:1;fill-rule:nonzero;stroke-width:0.101369"
       id="rect3"
       width="5.4393973"
       height="8.6257935"
       x="399.15051"
       y="291.38995"
       inkscape:label="small t top part" />
    <g
       inkscape:label="first e"
       id="g14"
       style="fill:#000000;fill-opacity:1"
       transform="matrix(0.37899222,0,0,0.37899222,316.36157,72.512865)">
      <path
         id="path6"
         style="fill:#000000;fill-opacity:1;fill-rule:nonzero;stroke-width:0.264583"
         d="m 282.09676,601.73808 c -13.20966,0.0693 -27.87571,11.21327 -27.36267,28.90418 0.41395,14.2741 12.51836,26.41283 25.76941,27.13139 11.56303,0.62703 19.5007,-0.0772 19.5007,-0.0772 l 0.0258,-12.92324 c 0,0 -11.41042,0.16911 -18.01027,0.17983 -2.06449,-0.46642 -7.10969,-0.36267 -11.28059,-6.62285 l 39.97509,0.007 c 3.12683,-23.85146 -11.69604,-36.68753 -28.61747,-36.59873 z m 0.52504,13.3196 c 13.78436,0.21669 15.11535,13.08086 15.11535,13.08086 l -29.64935,0.14521 c 0,0 1.80812,-13.42612 14.534,-13.22607 z"
         sodipodi:nodetypes="ssscccccsccsc" />
    </g>
    <path
       id="rect19"
       style="fill:#000000;fill-opacity:1;fill-rule:nonzero;stroke-width:0.100364;stroke-dasharray:none"
       d="m 446.48302,300.02835 a 9.3478104,9.3867603 0 0 0 -4.82966,1.34999 v -1.33217 h -5.40897 v 21.89423 h 5.40897 v -12.39514 a 5.3165672,5.4528892 0 0 1 5.16065,-4.14202 5.3165672,5.4528892 0 0 1 0.0632,3.8e-4 v -5.36687 a 9.3478104,9.3867603 0 0 0 -0.39426,-0.008 z"
       inkscape:label="r" />
    <path
       id="rect1"
       style="fill:#000000;fill-opacity:1;stroke-width:0.0994902"
       d="m 442.85636,291.56542 v 5.36216 h 8.4378 v 24.8878 h 5.4597 v -24.8878 h 38.8115 v -5.36216 z"
       inkscape:label="big T" />
    <path
       id="path4"
       style="fill:#000000;fill-opacity:1;stroke-width:0.100433"
       d="m 494.56399,300.5792 c -5.98171,-6e-5 -10.83088,4.80939 -10.83086,10.74216 -2e-5,5.93277 4.84915,10.74222 10.83086,10.74216 1.31727,-10e-6 2.5795,-0.23331 3.74721,-0.6604 l -1.87567,-5.15359 c -0.57243,0.20629 -1.19095,0.31883 -1.83607,0.31883 -2.94685,8e-5 -5.33575,-2.34912 -5.33574,-5.247 -10e-6,-2.89788 2.38889,-5.24706 5.33574,-5.24701 0.69307,1e-5 1.35528,0.12996 1.9628,0.36643 l 2.23132,-5.01159 c -1.29945,-0.54724 -2.72886,-0.84998 -4.22959,-0.84999 z"
       inkscape:label="c" />
    <path
       id="rect8"
       style="fill:#000000;fill-opacity:1;stroke-width:0.0998993"
       d="m 500.77518,291.50333 v 30.35983 h 5.35278 v -11.39884 a 5.2203491,4.8884072 0 0 1 5.1898,-4.36078 5.2203491,4.8884072 0 0 1 5.2047,4.51236 h 0.0399 v 11.29935 h 5.39921 v -11.31246 a 10.653452,9.5327468 0 0 0 0.007,-0.349 10.653452,9.5327468 0 0 0 -10.65343,-9.5326 10.653452,9.5327468 0 0 0 -5.18726,1.20644 v -10.4243 z m -0.0964,18.21382 a 10.653452,9.5327468 0 0 0 -0.017,0.53664 10.653452,9.5327468 0 0 0 0.008,0.36211 h 0.009 z"
       inkscape:label="h" />
  </g>
</svg>
