<?xml version="1.0" encoding="UTF-8" standalone="no"?>
<!-- Created with Inkscape (http://www.inkscape.org/) -->

<svg
   width="671.56763"
   height="672.49432"
   viewBox="0 0 177.6856 177.93079"
   version="1.1"
   id="svg1"
   inkscape:version="1.4.3 (0d15f75042, 2025-12-25)"
   sodipodi:docname="big_a.svg"
   xmlns:inkscape="http://www.inkscape.org/namespaces/inkscape"
   xmlns:sodipodi="http://sodipodi.sourceforge.net/DTD/sodipodi-0.dtd"
   xmlns="http://www.w3.org/2000/svg"
   xmlns:svg="http://www.w3.org/2000/svg">
  <sodipodi:namedview
     id="namedview1"
     pagecolor="#ffffff"
     bordercolor="#000000"
     borderopacity="0.25"
     inkscape:showpageshadow="2"
     inkscape:pageopacity="0.0"
     inkscape:pagecheckerboard="0"
     inkscape:deskcolor="#d1d1d1"
     inkscape:document-units="mm"
     inkscape:zoom="0.45254834"
     inkscape:cx="166.83301"
     inkscape:cy="225.39029"
     inkscape:window-width="1081"
     inkscape:window-height="1026"
     inkscape:window-x="0"
     inkscape:window-y="0"
     inkscape:window-maximized="1"
     inkscape:current-layer="layer1" />
  <defs
     id="defs1" />
  <g
     inkscape:label="Layer 1"
     inkscape:groupmode="layer"
     id="layer1"
     transform="translate(-5.8917423,-5.1011093)">
    <path
       id="path15-2"
       style="fill:#008bc2;fill-opacity:1;stroke-width:0.104553"
       d="m 71.303323,131.69837 c -10.301771,-0.0167 -19.740561,7.59822 -23.162356,14.09608 -3.421705,6.49771 -12.52249,24.60052 -18.667217,36.95508 l 11.74863,0.03 c 6.388911,-13.8857 9.176198,-18.95018 16.142518,-32.09193 2.62058,-3.8883 6.973677,-8.60226 15.038901,-8.82479 3.724364,-2e-5 7.801233,1.27651 10.822457,3.44892 l 1.329038,1.2131 1.407964,1.44732 c 9.282208,9.33966 22.139412,14.98681 35.969732,14.98681 16.63187,-3e-5 32.1177,-7.86817 41.13452,-20.59907 l -4.85785,-9.74334 c -1.535,1.5465 -2.90489,2.79195 -4.27052,4.15141 v 0.13828 h -0.14221 c -2.20838,2.19597 -4.36902,4.4269 -6.91523,6.72234 -16.49845,13.68859 -40.60595,11.36305 -54.307934,-3.94069 -0.21049,-0.19643 -0.5801,-0.5147 -0.5801,-0.5147 -5.628662,-4.82826 -11.183395,-7.45936 -20.690343,-7.47479 z"
       inkscape:label="big wave on bottom" />
    <path
       id="path15-2-8"
       style="fill:#00a5c2;fill-opacity:1;stroke-width:0.104553"
       d="m 72.355231,110.21858 c -17.079823,0.007 -33.231672,8.56436 -42.021506,23.26302 l -24.4328318,49.20801 11.3968828,0.0227 c 0,0 17.744616,-35.21308 19.296287,-38.31328 4.385037,-10.00295 16.444146,-23.60128 35.4057,-23.64807 11.136398,0.0251 18.428703,3.18438 25.103813,8.52827 0,0 1.88051,1.62434 2.71643,2.54351 10.950564,12.0412 27.905154,13.36996 39.963724,3.36509 0.37185,-0.30857 0.73573,-0.6264 1.09127,-0.95321 l 12.24431,-11.82755 -4.78636,-9.60075 -14.14093,13.18675 -0.36937,0.3445 -0.009,-0.0101 c -3.35075,3.20585 -7.83862,5.00395 -12.51382,5.01375 -3.37435,4e-5 -6.57443,-1.00353 -9.43564,-2.76245 l -3.94441,-3.56349 -1.57776,-1.53409 C 97.328446,115.15487 85.215017,110.25668 72.470588,110.21877 Z m 81.583909,26.55133 c -0.0449,0.0447 -0.0954,0.0918 -0.14022,0.13631 h 0.14022 z m -7.05744,6.85866 c -2.06231,1.71106 -4.24357,3.17184 -6.50848,4.3884 2.26491,-1.21656 4.44617,-2.67734 6.50848,-4.3884 z"
       inkscape:label="big wave on top" />
    <path
       id="rect12"
       style="fill:#000000;fill-opacity:1;stroke-width:0.334899"
       d="m 94.546366,5.1565945 -0.002,0.0039 -2e-4,-1.95e-4 L 30.311975,133.51703 c 0.02694,-0.0448 0.05397,-0.0896 0.08108,-0.13435 8.803015,-14.63832 24.920763,-23.15714 41.962357,-23.16451 l 0.115358,2e-4 c 1.652986,0.005 3.295333,0.0916 4.921699,0.25695 L 94.546156,76.196558 122.13119,131.3204 c 4.37315,-0.20793 8.53066,-1.97791 11.68224,-4.99319 l 0.009,0.0101 0.36938,-0.34451 14.14073,-13.18635 z M 163.0677,142.35946 c -6.22817,8.79359 -15.54265,15.26715 -26.1894,18.43024 l 11.15814,22.29768 h 35.55005 z"
       sodipodi:nodetypes="cccccccccccccccccccc"
       inkscape:label="big A" />
  </g>
</svg>
